# xmcd CD database file
#
# Track frame offsets:
#	150
#	12442
#	19520
#	28235
#	35860
#	49805
#	61705
#	75577
#	85435
#	94412
#	109010
#	118895
#	126742
#	135195
#	150665
#	163277
#	178182
#	191892
#	209817
#	229187
#	241262
#	257382
#	271347
#	286250
#	300375
#
# Disc length: 4223 seconds
#
# Revision: 0
# Processed by: cddbd v1.5PL3 Copyright (c) Steve Scherf et al.
# Submitted via: CDex 1.51
#
DISCID=68107d19
DTITLE=清水靖晃 - 鉄人２８号 オリジナル・サウンドトラック 〜コンプリート・エディション〜
DYEAR=1900
DGENRE=アニメ
TTITLE0=太陽の使者 鉄人２８号
TTITLE1=宇宙の彼方へ
TTITLE2=ブランチのテーマ
TTITLE3=おちゃめなマッキー
TTITLE4=スペースドッグ
TTITLE5=決死の空中戦
TTITLE6=涙と友情
TTITLE7=戦え!!正太郎
TTITLE8=サーバンロボ０８号
TTITLE9=チェイサー〜追跡者
TTITLE10=おヒゲの警部
TTITLE11=友よ心に
TTITLE12=タイムリミット
TTITLE13=希望に向って〜正太郎のテーマ
TTITLE14=無敵の鉄人２８号
TTITLE15=宇宙魔王のテーマ
TTITLE16=夢飛行〜フライング・ハイ
TTITLE17=立ち上がれ！鉄人
TTITLE18=平和を夢見て
TTITLE19=鉄人出動
TTITLE20=泣くな正太郎
TTITLE21=行け！アイアンファイター
TTITLE22=ブラックオックスのテーマ
TTITLE23=スペースクラッシャー
TTITLE24=誰かが僕らを呼んでいる
EXTD=
EXTT0=
EXTT1=
EXTT2=
EXTT3=
EXTT4=
EXTT5=
EXTT6=
EXTT7=
EXTT8=
EXTT9=
EXTT10=
EXTT11=
EXTT12=
EXTT13=
EXTT14=
EXTT15=
EXTT16=
EXTT17=
EXTT18=
EXTT19=
EXTT20=
EXTT21=
EXTT22=
EXTT23=
EXTT24=
PLAYORDER=
